<?xml version="1.0" encoding="UTF-8"?>
<svg version="1.1" xmlns="http://www.w3.org/2000/svg" width="500" height="500">
<path d="M0 0 C1.04618678 0.00436926 1.04618678 0.00436926 2.11350864 0.00882679 C2.84940249 0.00797237 3.58529634 0.00711794 4.34349 0.00623763 C6.82792449 0.00458063 9.31229258 0.01010775 11.79672092 0.01555592 C13.57024487 0.01583777 15.34376894 0.0156801 17.11729282 0.01511341 C21.9476682 0.01482535 26.77801897 0.02072341 31.6083886 0.02768737 C36.6506112 0.03391955 41.6928343 0.0345246 46.73506016 0.03571278 C56.2902603 0.0388265 65.84544906 0.04704043 75.40064418 0.05706227 C86.27591236 0.06822215 97.15118108 0.07373354 108.02645355 0.0787577 C130.40422948 0.08922301 152.78198981 0.107569 175.15975803 0.12908131 C175.15975803 20.91908131 175.15975803 41.70908131 175.15975803 63.12908131 C139.18975803 63.12908131 103.21975803 63.12908131 66.15975803 63.12908131 C66.15975803 82.92908131 66.15975803 102.72908131 66.15975803 123.12908131 C99.48975803 123.12908131 132.81975803 123.12908131 167.15975803 123.12908131 C167.78578577 128.1373032 168.28184969 132.27126667 168.18148655 137.17790943 C168.15085117 138.88188893 168.15085117 138.88188893 168.1195969 140.62029225 C168.07953525 142.37261158 168.07953525 142.37261158 168.03866428 144.16033131 C168.00766636 145.79953541 168.00766636 145.79953541 167.97604221 147.47185475 C167.89773032 151.52438988 167.8094116 155.57672668 167.72225803 159.62908131 C167.53663303 168.70408131 167.35100803 177.77908131 167.15975803 187.12908131 C133.82975803 187.12908131 100.49975803 187.12908131 66.15975803 187.12908131 C66.15975803 228.04908131 66.15975803 268.96908131 66.15975803 311.12908131 C42.39975803 311.12908131 18.63975803 311.12908131 -5.84024197 311.12908131 C-5.86226767 271.65393469 -5.88073941 232.17879385 -5.8913073 192.70364285 C-5.89255808 188.04833652 -5.89385239 183.3930302 -5.89517361 178.73772389 C-5.89556707 177.34748148 -5.89556707 177.34748148 -5.89596849 175.92915338 C-5.90032551 160.90161944 -5.90821324 145.8740893 -5.91739476 130.84655762 C-5.9267304 115.43883396 -5.93229739 100.03111229 -5.93433046 84.62338591 C-5.93570588 75.10805628 -5.94005746 65.59273742 -5.94815844 56.07741111 C-5.95342479 49.56158867 -5.95504652 43.04577183 -5.95374335 36.52994741 C-5.95309979 32.76484571 -5.95411942 28.99976288 -5.95944744 25.2346645 C-5.96516829 21.16247534 -5.96324317 17.09032688 -5.96049649 13.01813465 C-5.96340933 11.81485352 -5.96632217 10.61157239 -5.96932328 9.3718282 C-5.96733223 8.28998452 -5.96534118 7.20814084 -5.9632898 6.09351403 C-5.96366952 5.15218733 -5.96404924 4.21086063 -5.96444046 3.24100888 C-5.72666415 -0.80224747 -3.51498158 0.01112635 0 0 Z " fill="#FD0000" transform="translate(170.84024196863174,86.8709186911583)"/>
<path d="M0 0 C1.04618678 0.00436926 1.04618678 0.00436926 2.11350864 0.00882679 C2.84940249 0.00797237 3.58529634 0.00711794 4.34349 0.00623763 C6.82792449 0.00458063 9.31229258 0.01010775 11.79672092 0.01555592 C13.57024487 0.01583777 15.34376894 0.0156801 17.11729282 0.01511341 C21.9476682 0.01482535 26.77801897 0.02072341 31.6083886 0.02768737 C36.6506112 0.03391955 41.6928343 0.0345246 46.73506016 0.03571278 C56.2902603 0.0388265 65.84544906 0.04704043 75.40064418 0.05706227 C86.27591236 0.06822215 97.15118108 0.07373354 108.02645355 0.0787577 C130.40422948 0.08922301 152.78198981 0.107569 175.15975803 0.12908131 C175.15975803 20.91908131 175.15975803 41.70908131 175.15975803 63.12908131 C139.18975803 63.12908131 103.21975803 63.12908131 66.15975803 63.12908131 C66.15975803 82.92908131 66.15975803 102.72908131 66.15975803 123.12908131 C99.48975803 123.12908131 132.81975803 123.12908131 167.15975803 123.12908131 C167.78578577 128.1373032 168.28184969 132.27126667 168.18148655 137.17790943 C168.15085117 138.88188893 168.15085117 138.88188893 168.1195969 140.62029225 C168.07953525 142.37261158 168.07953525 142.37261158 168.03866428 144.16033131 C168.00766636 145.79953541 168.00766636 145.79953541 167.97604221 147.47185475 C167.89773032 151.52438988 167.8094116 155.57672668 167.72225803 159.62908131 C167.53663303 168.70408131 167.35100803 177.77908131 167.15975803 187.12908131 C133.82975803 187.12908131 100.49975803 187.12908131 66.15975803 187.12908131 C66.15975803 228.04908131 66.15975803 268.96908131 66.15975803 311.12908131 C42.39975803 311.12908131 18.63975803 311.12908131 -5.84024197 311.12908131 C-5.86226767 271.65393469 -5.88073941 232.17879385 -5.8913073 192.70364285 C-5.89255808 188.04833652 -5.89385239 183.3930302 -5.89517361 178.73772389 C-5.89556707 177.34748148 -5.89556707 177.34748148 -5.89596849 175.92915338 C-5.90032551 160.90161944 -5.90821324 145.8740893 -5.91739476 130.84655762 C-5.9267304 115.43883396 -5.93229739 100.03111229 -5.93433046 84.62338591 C-5.93570588 75.10805628 -5.94005746 65.59273742 -5.94815844 56.07741111 C-5.95342479 49.56158867 -5.95504652 43.04577183 -5.95374335 36.52994741 C-5.95309979 32.76484571 -5.95411942 28.99976288 -5.95944744 25.2346645 C-5.96516829 21.16247534 -5.96324317 17.09032688 -5.96049649 13.01813465 C-5.96340933 11.81485352 -5.96632217 10.61157239 -5.96932328 9.3718282 C-5.96733223 8.28998452 -5.96534118 7.20814084 -5.9632898 6.09351403 C-5.96366952 5.15218733 -5.96404924 4.21086063 -5.96444046 3.24100888 C-5.72666415 -0.80224747 -3.51498158 0.01112635 0 0 Z M-3.84024197 2.12908131 C-3.84024197 103.43908131 -3.84024197 204.74908131 -3.84024197 309.12908131 C18.59975803 309.12908131 41.03975803 309.12908131 64.15975803 309.12908131 C64.48975803 267.87908131 64.81975803 226.62908131 65.15975803 184.12908131 C97.82975803 184.12908131 130.49975803 184.12908131 164.15975803 184.12908131 C164.15975803 164.98908131 164.15975803 145.84908131 164.15975803 126.12908131 C131.48975803 125.79908131 98.81975803 125.46908131 65.15975803 125.12908131 C64.25594536 121.51383061 64.03849214 118.85164425 64.04623264 115.16716725 C64.04635349 113.94948658 64.04647434 112.73180592 64.04659885 111.47722584 C64.05171482 110.20218189 64.05683079 108.92713795 64.06210178 107.61345631 C64.06310886 106.43799244 64.06411594 105.26252857 64.06515354 104.05144459 C64.07038539 99.66064691 64.08434666 95.26986313 64.09725803 90.87908131 C64.11788303 81.06158131 64.13850803 71.24408131 64.15975803 61.12908131 C100.12975803 61.12908131 136.09975803 61.12908131 173.15975803 61.12908131 C173.15975803 41.65908131 173.15975803 22.18908131 173.15975803 2.12908131 C114.74975803 2.12908131 56.33975803 2.12908131 -3.84024197 2.12908131 Z " fill="#C50C0B" transform="translate(170.84024196863174,86.8709186911583)"/>
<path d="M0 0 C0.33 0 0.66 0 1 0 C1 101.97 1 203.94 1 309 C24.1 309 47.2 309 71 309 C71 267.75 71 226.5 71 184 C104 184 137 184 171 184 C171 164.2 171 144.4 171 124 C138.33 124 105.66 124 72 124 C72 123.34 72 122.68 72 122 C105.33 122 138.66 122 173 122 C173.62602774 127.00822189 174.12209166 131.14218536 174.02172852 136.04882812 C173.99109314 137.75280762 173.99109314 137.75280762 173.95983887 139.49121094 C173.91977722 141.24353027 173.91977722 141.24353027 173.87890625 143.03125 C173.84790833 144.6704541 173.84790833 144.6704541 173.81628418 146.34277344 C173.73797228 150.39530857 173.64965357 154.44764537 173.5625 158.5 C173.376875 167.575 173.19125 176.65 173 186 C139.67 186 106.34 186 72 186 C72 226.92 72 267.84 72 310 C48.24 310 24.48 310 0 310 C0 207.7 0 105.4 0 0 Z " fill="#6E0807" transform="translate(165,88)"/>
<path d="" fill="#000000" transform="translate(0,0)"/>
<path d="" fill="#000000" transform="translate(0,0)"/>
<path d="" fill="#000000" transform="translate(0,0)"/>
<path d="" fill="#000000" transform="translate(0,0)"/>
<path d="" fill="#000000" transform="translate(0,0)"/>
<path d="" fill="#000000" transform="translate(0,0)"/>
<path d="" fill="#000000" transform="translate(0,0)"/>
<path d="" fill="#000000" transform="translate(0,0)"/>
<path d="" fill="#000000" transform="translate(0,0)"/>
<path d="" fill="#000000" transform="translate(0,0)"/>
<path d="" fill="#000000" transform="translate(0,0)"/>
<path d="" fill="#000000" transform="translate(0,0)"/>
<path d="" fill="#000000" transform="translate(0,0)"/>
<path d="" fill="#000000" transform="translate(0,0)"/>
<path d="" fill="#000000" transform="translate(0,0)"/>
<path d="" fill="#000000" transform="translate(0,0)"/>
<path d="" fill="#000000" transform="translate(0,0)"/>
<path d="" fill="#000000" transform="translate(0,0)"/>
<path d="" fill="#000000" transform="translate(0,0)"/>
<path d="" fill="#000000" transform="translate(0,0)"/>
<path d="" fill="#000000" transform="translate(0,0)"/>
<path d="" fill="#000000" transform="translate(0,0)"/>
<path d="" fill="#000000" transform="translate(0,0)"/>
<path d="" fill="#000000" transform="translate(0,0)"/>
<path d="" fill="#000000" transform="translate(0,0)"/>
<path d="" fill="#000000" transform="translate(0,0)"/>
<path d="" fill="#000000" transform="translate(0,0)"/>
<path d="" fill="#000000" transform="translate(0,0)"/>
<path d="" fill="#000000" transform="translate(0,0)"/>
<path d="" fill="#000000" transform="translate(0,0)"/>
<path d="" fill="#000000" transform="translate(0,0)"/>
<path d="" fill="#000000" transform="translate(0,0)"/>
<path d="" fill="#000000" transform="translate(0,0)"/>
<path d="" fill="#000000" transform="translate(0,0)"/>
<path d="" fill="#000000" transform="translate(0,0)"/>
<path d="" fill="#000000" transform="translate(0,0)"/>
<path d="" fill="#000000" transform="translate(0,0)"/>
<path d="" fill="#000000" transform="translate(0,0)"/>
<path d="" fill="#000000" transform="translate(0,0)"/>
<path d="" fill="#000000" transform="translate(0,0)"/>
<path d="" fill="#000000" transform="translate(0,0)"/>
<path d="" fill="#000000" transform="translate(0,0)"/>
<path d="" fill="#000000" transform="translate(0,0)"/>
<path d="" fill="#000000" transform="translate(0,0)"/>
<path d="" fill="#000000" transform="translate(0,0)"/>
<path d="" fill="#000000" transform="translate(0,0)"/>
<path d="" fill="#000000" transform="translate(0,0)"/>
<path d="" fill="#000000" transform="translate(0,0)"/>
<path d="" fill="#000000" transform="translate(0,0)"/>
<path d="" fill="#000000" transform="translate(0,0)"/>
<path d="" fill="#000000" transform="translate(0,0)"/>
<path d="" fill="#000000" transform="translate(0,0)"/>
<path d="" fill="#000000" transform="translate(0,0)"/>
<path d="" fill="#000000" transform="translate(0,0)"/>
<path d="" fill="#000000" transform="translate(0,0)"/>
<path d="" fill="#000000" transform="translate(0,0)"/>
<path d="" fill="#000000" transform="translate(0,0)"/>
<path d="" fill="#000000" transform="translate(0,0)"/>
<path d="" fill="#000000" transform="translate(0,0)"/>
<path d="" fill="#000000" transform="translate(0,0)"/>
<path d="" fill="#000000" transform="translate(0,0)"/>
<path d="" fill="#000000" transform="translate(0,0)"/>
<path d="" fill="#000000" transform="translate(0,0)"/>
<path d="" fill="#000000" transform="translate(0,0)"/>
<path d="" fill="#000000" transform="translate(0,0)"/>
<path d="" fill="#000000" transform="translate(0,0)"/>
<path d="" fill="#000000" transform="translate(0,0)"/>
<path d="" fill="#000000" transform="translate(0,0)"/>
</svg>
